<svg xmlns="http://www.w3.org/2000/svg" width="112" height="112" viewBox="0 0 112 112">
  <defs>
    <style>
      .cls-1 {
        fill: #fff;
      }
    </style>
  </defs>
  <path id="cookie-bite-solid" class="cls-1" d="M60,4a56,56,0,1,0,56,56,54.254,54.254,0,0,0-.437-6.69,11.627,11.627,0,0,1-17.482-5.633A18.626,18.626,0,0,1,69.333,32a18.454,18.454,0,0,1,2.607-9.37,1.407,1.407,0,0,1-.273.036A11.654,11.654,0,0,1,60,11a11.5,11.5,0,0,1,2.315-6.909C61.549,4.055,60.784,4,60,4ZM95,4a7,7,0,1,0,7,7A7,7,0,0,0,95,4ZM50.9,14.208a21.14,21.14,0,0,0,9.315,14.4A26.257,26.257,0,0,0,60,32,28.031,28.031,0,0,0,88,60a27.077,27.077,0,0,0,6.854-.875,21.078,21.078,0,0,0,11.594,5.4A46.668,46.668,0,1,1,50.9,14.208ZM88,27.333A4.667,4.667,0,1,0,92.667,32,4.676,4.676,0,0,0,88,27.333ZM50.667,32a4.667,4.667,0,1,0,4.667,4.667A4.676,4.676,0,0,0,50.667,32Zm60.667,0A4.667,4.667,0,1,0,116,36.667,4.676,4.676,0,0,0,111.333,32ZM36.667,46A9.333,9.333,0,1,0,46,55.333,9.328,9.328,0,0,0,36.667,46ZM60,55.333A4.667,4.667,0,1,0,64.667,60,4.676,4.676,0,0,0,60,55.333ZM43.667,74a7,7,0,1,0,7,7A7,7,0,0,0,43.667,74Zm32.667,4.667a7,7,0,1,0,7,7A7,7,0,0,0,76.333,78.667Z" transform="translate(-4 -4)"/>
</svg>
